<?xml version="1.0" encoding="UTF-8"?>
<svg width="237px" height="31px" viewBox="0 0 237 31" version="1.1" xmlns="http://www.w3.org/2000/svg" xmlns:xlink="http://www.w3.org/1999/xlink">
    <!-- Generator: Sketch 51.3 (57544) - http://www.bohemiancoding.com/sketch -->
    <title>Logo</title>
    <desc>Created with Sketch.</desc>
    <defs>
        <polygon id="path-1" points="1.4264869e-05 0.0109815385 42.9623585 0.0109815385 42.9623585 28.6446102 1.4264869e-05 28.6446102"></polygon>
    </defs>
    <g id="Page-1" stroke="none" stroke-width="1" fill="none" fill-rule="evenodd">
        <g id="Todo-App" transform="translate(-16.000000, -28.000000)">
            <g id="Vertical-Menu" transform="translate(16.000000, 24.000000)">
                <g id="Logo">
                    <text id="QUA-TANG-BAO-HIEM" font-family="Montserrat-SemiBold, Montserrat" font-size="17" font-weight="500" fill="#F272A5">
                        <tspan x="53" y="19">QUA TANG BAO HIEM</tspan>
                    </text>
                    <text id="Administrator" font-family="Montserrat-Regular, Montserrat" font-size="12" font-weight="normal" fill="#858585">
                        <tspan x="53" y="34">Administrator</tspan>
                    </text>
                    <g id="Group-6" transform="translate(0.000000, 4.000000)">
                        <g id="Group-3" transform="translate(0.000000, 0.055172)">
                            <mask id="mask-2" fill="white">
                                <use xlink:href="#path-1"></use>
                            </mask>
                            <g id="Clip-2"></g>
                            <path d="M42.5376111,6.80889785 L31.7572465,0.144824 C31.4880665,-0.0215529231 31.1513434,-0.0336590769 30.8709172,0.113136308 L21.7302418,4.89705169 L13.229208,0.125639385 C12.9501049,-0.0310790769 12.6085526,-0.0269113846 12.3332865,0.136687077 L0.438031077,7.20489477 C0.165014154,7.367104 -0.00162738462,7.66181938 2.64615385e-05,7.979424 L0.0639310769,20.6531117 C0.0655187692,20.9694594 0.233880308,21.2615286 0.506897231,21.4214225 L11.7873849,28.029464 C12.3862095,28.3802778 13.1393711,27.946044 13.1357326,27.252024 L13.1215757,24.4277178 C13.1199218,24.1058794 12.9459372,23.8097748 12.6655111,23.6517994 L4.458928,19.0283732 C4.17863415,18.870464 4.00451723,18.5742932 4.00299569,18.2525209 L3.98559723,14.8219148 L4.12114646,10.4928732 C4.13087108,10.1816855 4.30141569,9.89795169 4.57165415,9.74335015 L12.5834142,5.16054246 C12.8561665,5.00461785 13.1907065,5.00289785 13.4650465,5.15617631 L21.4980418,9.64398708 C21.7830326,9.80321938 22.1321265,9.79475169 22.4090465,9.62189169 L30.805028,4.73272554 C31.0875711,4.57878554 31.4309757,4.58811323 31.7047203,4.75733477 L34.6227665,6.56115169 L38.2218003,8.971004 C38.4803295,9.14419477 38.6305649,9.43930708 38.6183926,9.75029631 L38.2571926,18.9731348 C38.2447557,19.2871671 38.0689849,19.5716948 37.7935865,19.7229886 L29.7299618,24.1554286 C29.4437803,24.3127425 29.2659588,24.6132132 29.265628,24.9396825 L29.2634449,27.7468548 C29.2628495,28.4275778 29.9917988,28.8601578 30.5889695,28.533424 L42.1841511,22.1897994 C42.4649742,22.036124 42.6425972,21.7442532 42.649808,21.4242009 L42.9621865,7.59103477 C42.9691988,7.27349631 42.8077172,6.97587015 42.5376111,6.80889785" id="Fill-1" fill="#FC619E" mask="url(#mask-2)"></path>
                        </g>
                        <path d="M21.48108,11.6875191 C18.0898354,11.6875191 15.34068,14.4367406 15.34068,17.8280514 C15.34068,21.219296 18.0898354,23.9685175 21.48108,23.9685175 C24.8724569,23.9685175 27.6216123,21.219296 27.6216123,17.8280514 C27.6216123,14.4367406 24.8724569,11.6875191 21.48108,11.6875191" id="Fill-4" fill="#FC619E"></path>
                    </g>
                </g>
            </g>
        </g>
    </g>
</svg>