<?xml version="1.0" encoding="utf-8"?>
<!-- Generator: Adobe Illustrator 21.0.0, SVG Export Plug-In . SVG Version: 6.00 Build 0)  -->
<svg version="1.1" id="Layer_1" xmlns="http://www.w3.org/2000/svg" xmlns:xlink="http://www.w3.org/1999/xlink" x="0px" y="0px"
	 viewBox="0 0 45 50" style="enable-background:new 0 0 45 50;" xml:space="preserve">
<style type="text/css">
	.st0{filter:url(#Adobe_OpacityMaskFilter);}
	.st1{fill:#FFFFFF;}
	.st2{mask:url(#mask-2_1_);fill:#FC619E;}
	.st3{fill:#FC619E;}
</style>
<g id="Group-6" transform="translate(0.000000, 4.000000)">
	<g id="Group-3" transform="translate(0.000000, 0.055172)">
		<g id="Clip-2">
		</g>
		<defs>
			<filter id="Adobe_OpacityMaskFilter" filterUnits="userSpaceOnUse" x="1" y="6" width="43" height="28.6">
				<feColorMatrix  type="matrix" values="1 0 0 0 0  0 1 0 0 0  0 0 1 0 0  0 0 0 1 0"/>
			</filter>
		</defs>
		<mask maskUnits="userSpaceOnUse" x="1" y="6" width="43" height="28.6" id="mask-2_1_">
			<g class="st0">
				<polygon id="path-1_1_" class="st1" points="1,6 44,6 44,34.6 1,34.6 				"/>
			</g>
		</mask>
		<path id="Fill-1" class="st2" d="M43.5,12.8L32.8,6.1c-0.3-0.2-0.6-0.2-0.9,0l-9.1,4.8l-8.5-4.8C14,6,13.6,6,13.3,6.1L1.4,13.2
			C1.2,13.4,1,13.7,1,14l0.1,12.7c0,0.3,0.2,0.6,0.4,0.8L12.8,34c0.6,0.4,1.4-0.1,1.3-0.8l0-2.8c0-0.3-0.2-0.6-0.5-0.8L5.5,25
			C5.2,24.9,5,24.6,5,24.3l0-3.4l0.1-4.3c0-0.3,0.2-0.6,0.5-0.7l8-4.6c0.3-0.2,0.6-0.2,0.9,0l8,4.5c0.3,0.2,0.6,0.2,0.9,0l8.4-4.9
			c0.3-0.2,0.6-0.1,0.9,0l2.9,1.8l3.6,2.4c0.3,0.2,0.4,0.5,0.4,0.8L39.3,25c0,0.3-0.2,0.6-0.5,0.7l-8.1,4.4
			c-0.3,0.2-0.5,0.5-0.5,0.8l0,2.8c0,0.7,0.7,1.1,1.3,0.8l11.6-6.3c0.3-0.2,0.5-0.4,0.5-0.8L44,13.6C44,13.3,43.8,13,43.5,12.8"/>
	</g>
	<path id="Fill-4" class="st3" d="M22.5,17.7c-3.4,0-6.1,2.7-6.1,6.1c0,3.4,2.7,6.1,6.1,6.1c3.4,0,6.1-2.7,6.1-6.1
		C28.6,20.4,25.9,17.7,22.5,17.7"/>
</g>
</svg>
